<?xml version="1.0" encoding="UTF-8" standalone="no"?>
<!-- Created with Inkscape (http://www.inkscape.org/) -->

<svg
   width="210mm"
   height="297mm"
   viewBox="0 0 210 297"
   version="1.1"
   id="svg1"
   xmlns="http://www.w3.org/2000/svg"
   xmlns:svg="http://www.w3.org/2000/svg">
  <defs
     id="defs1">
    <clipPath
       clipPathUnits="userSpaceOnUse"
       id="clipPath664">
      <path
         d="M 0,500 H 500 V 0 H 0 Z"
         transform="translate(-344.72441,-319.97671)"
         id="path664" />
    </clipPath>
    <clipPath
       clipPathUnits="userSpaceOnUse"
       id="clipPath666">
      <path
         d="M 0,500 H 500 V 0 H 0 Z"
         transform="translate(-346.18151,-321.67671)"
         id="path666" />
    </clipPath>
    <clipPath
       clipPathUnits="userSpaceOnUse"
       id="clipPath668">
      <path
         d="M 0,500 H 500 V 0 H 0 Z"
         transform="translate(-344.70501,-314.77241)"
         id="path668" />
    </clipPath>
    <clipPath
       clipPathUnits="userSpaceOnUse"
       id="clipPath670">
      <path
         d="M 0,500 H 500 V 0 H 0 Z"
         transform="translate(-342.99771,-376.13611)"
         id="path670" />
    </clipPath>
    <clipPath
       clipPathUnits="userSpaceOnUse"
       id="clipPath672">
      <path
         d="M 0,500 H 500 V 0 H 0 Z"
         transform="translate(-342.09681,-380.42491)"
         id="path672" />
    </clipPath>
    <clipPath
       clipPathUnits="userSpaceOnUse"
       id="clipPath674">
      <path
         d="M 0,500 H 500 V 0 H 0 Z"
         transform="translate(-346.18151,-321.67671)"
         id="path674" />
    </clipPath>
    <clipPath
       clipPathUnits="userSpaceOnUse"
       id="clipPath676">
      <path
         d="M 0,500 H 500 V 0 H 0 Z"
         transform="translate(-343.01971,-314.17491)"
         id="path676" />
    </clipPath>
    <clipPath
       clipPathUnits="userSpaceOnUse"
       id="clipPath678">
      <path
         d="M 0,500 H 500 V 0 H 0 Z"
         transform="translate(-310.01771,-395.22661)"
         id="path678" />
    </clipPath>
    <clipPath
       clipPathUnits="userSpaceOnUse"
       id="clipPath680">
      <path
         d="M 0,500 H 500 V 0 H 0 Z"
         transform="translate(-313.09381,-393.68851)"
         id="path680" />
    </clipPath>
    <clipPath
       clipPathUnits="userSpaceOnUse"
       id="clipPath682">
      <path
         d="M 0,500 H 500 V 0 H 0 Z"
         transform="translate(-321.23421,-389.66251)"
         id="path682" />
    </clipPath>
    <clipPath
       clipPathUnits="userSpaceOnUse"
       id="clipPath684">
      <path
         d="M 0,500 H 500 V 0 H 0 Z"
         transform="translate(-325.82531,-385.91231)"
         id="path684" />
    </clipPath>
    <clipPath
       clipPathUnits="userSpaceOnUse"
       id="clipPath686">
      <path
         d="M 0,500 H 500 V 0 H 0 Z"
         transform="translate(-333.10841,-370.05781)"
         id="path686" />
    </clipPath>
    <clipPath
       clipPathUnits="userSpaceOnUse"
       id="clipPath688">
      <path
         d="M 0,500 H 500 V 0 H 0 Z"
         transform="translate(-335.99981,-363.22841)"
         id="path688" />
    </clipPath>
    <clipPath
       clipPathUnits="userSpaceOnUse"
       id="clipPath690">
      <path
         d="M 0,500 H 500 V 0 H 0 Z"
         transform="translate(-337.89761,-356.89981)"
         id="path690" />
    </clipPath>
  </defs>
  <g
     id="layer1">
    <path
       id="path663"
       d="m 0,0 c -0.243,-3.172 -0.721,-5.695 -1.477,-6.904 -0.456,-0.739 -1.017,-0.989 -1.685,-0.598 -2.479,1.448 -7.028,18.19 -13.23,29.767 -6.2,11.576 -15.089,21.084 -15.089,21.084 0,0 -2.275,-14.056 -7.237,-13.228 -4.959,0.826 -8.682,29.766 -6.834,40.478 0.365,2.108 0.794,4.216 3.291,5.234 1.481,0.602 3.689,0.821 7.043,0.43 h 0.002 c 2.266,-0.265 5.049,-0.807 8.488,-1.698 13.259,-3.436 20.203,-10.868 22.643,-15.817 0.938,-1.899 1.21,-3.431 0.923,-4.235 -0.007,-0.02 -0.015,-0.037 -0.022,-0.054 -1.129,-2.775 -10.931,-0.004 -11.137,0.051 0.012,-0.019 0.09,-0.136 0.221,-0.347 0.585,-0.925 2.249,-3.645 4.238,-7.604 0,-0.002 0,-0.004 0.002,-0.007 3.077,-6.134 6.934,-15.253 8.765,-25.32 C 0.027,15.054 0.478,6.263 0,0"
       style="fill:#5f519b;fill-opacity:1;fill-rule:nonzero;stroke:none"
       transform="matrix(2.0715519,0,0,-2.1007783,154.20856,227.74281)"
       clip-path="url(#clipPath664)" />
    <path
       id="path665"
       d="m 0,0 c -0.243,-3.172 -0.721,-5.695 -1.477,-6.904 -0.456,-0.739 -1.017,-0.989 -1.685,-0.598 -2.479,1.448 -7.028,18.19 -13.23,29.767 -6.2,11.576 -15.089,21.084 -15.089,21.084 0,0 -2.275,-14.056 -7.237,-13.228 -4.959,0.826 -8.682,29.766 -6.834,40.478 0.365,2.108 0.794,4.216 3.291,5.234 1.481,0.602 3.689,0.821 7.043,0.43 h 0.002 c 2.266,-0.265 5.049,-0.807 8.488,-1.698 13.259,-3.436 20.203,-10.868 22.643,-15.817 0.938,-1.899 1.21,-3.431 0.923,-4.235 -0.007,-0.02 -0.015,-0.037 -0.022,-0.054 -1.129,-2.775 -10.931,-0.004 -11.137,0.051 0.012,-0.019 0.09,-0.136 0.221,-0.347 0.585,-0.925 2.249,-3.645 4.238,-7.604 0,-0.002 0,-0.004 0.002,-0.007 3.077,-6.134 6.934,-15.253 8.765,-25.32 C 0.027,15.054 0.478,6.263 0,0"
       style="fill:#ffae2c;fill-opacity:1;fill-rule:nonzero;stroke:#222221;stroke-width:1;stroke-linecap:butt;stroke-linejoin:miter;stroke-miterlimit:10;stroke-dasharray:none;stroke-opacity:1"
       transform="matrix(2.0715519,0,0,-2.1007783,157.227,224.17144)"
       clip-path="url(#clipPath666)" />
    <path
       id="path667"
       d="m 0,0 c -0.457,-0.738 -1.018,-0.988 -1.685,-0.597 -2.48,1.447 -7.029,18.189 -13.231,29.766 -6.2,11.577 -15.088,21.084 -15.088,21.084 0,0 -2.276,-14.056 -7.237,-13.228 -4.959,0.826 -8.682,29.766 -6.834,40.479 0.364,2.108 0.794,4.215 3.291,5.233 -0.668,-8.582 -2.021,-31.673 2.858,-31.153 5.991,0.636 7.285,4.036 10.848,1.931 C -23.515,51.409 -8.136,33.278 -4.736,19.516 -2.907,12.118 -1.195,5 0,0"
       style="fill:#ff4d88;fill-opacity:1;fill-rule:nonzero;stroke:none"
       transform="matrix(2.0715519,0,0,-2.1007783,154.16839,238.67588)"
       clip-path="url(#clipPath668)" />
    <path
       id="path669"
       d="m 0,0 c -1.129,-2.776 -10.931,-0.005 -11.137,0.051 0.012,-0.019 0.09,-0.136 0.221,-0.347 -1.928,1.464 -2.63,2.516 -1.018,1.998 C -9.309,0.862 -3.652,0.296 0,0"
       style="fill:#8c76ce;fill-opacity:1;fill-rule:nonzero;stroke:none"
       transform="matrix(2.0715519,0,0,-2.1007783,150.63161,109.76434)"
       clip-path="url(#clipPath670)" />
    <path
       id="path671"
       d="m 0,0 c -3.844,1.569 -9.109,5.537 -15.079,9.253 -5.138,3.196 -11.841,6.37 -16.052,8.261 2.266,-0.264 5.049,-0.806 8.488,-1.697 C -9.384,12.381 -2.441,4.949 0,0"
       style="fill:#ffd599;fill-opacity:1;fill-rule:nonzero;stroke:none"
       transform="matrix(2.0715519,0,0,-2.1007783,148.76534,100.75448)"
       clip-path="url(#clipPath672)" />
    <path
       id="path673"
       d="m 0,0 c -3.806,7.108 -5.243,30.24 -7.346,35.925 -1.593,4.308 -2.339,8.262 -2.514,10.627 3.077,-6.134 6.934,-15.253 8.765,-25.32 C 0.027,15.054 0.478,6.263 0,0"
       style="fill:#ffd599;fill-opacity:1;fill-rule:nonzero;stroke:none"
       transform="matrix(2.0715519,0,0,-2.1007783,157.227,224.17144)"
       clip-path="url(#clipPath674)" />
    <path
       id="path675"
       d="m 0,0 c 3.932,-2.294 4.105,17.525 2.067,28.733 -3.307,18.191 -13.23,33.281 -13.23,33.281 0,0 10.129,-2.894 11.163,0 1.034,2.894 -5.22,15.297 -23.565,20.052 -17.118,4.436 -18.099,0.24 -18.825,-3.965 -1.847,-10.712 1.874,-39.652 6.835,-40.479 4.961,-0.827 7.235,13.23 7.235,13.23 0,0 8.889,-9.509 15.09,-21.085 C -7.028,18.191 -2.481,1.447 0,0 Z"
       style="fill:none;stroke:#222221;stroke-width:1;stroke-linecap:butt;stroke-linejoin:miter;stroke-miterlimit:10;stroke-dasharray:none;stroke-opacity:1"
       transform="matrix(2.0715519,0,0,-2.1007783,150.67718,239.93107)"
       clip-path="url(#clipPath676)" />
    <path
       id="path677"
       d="m 0,0 c -0.388,0 -0.711,-0.324 -0.711,-0.711 0,-0.388 0.323,-0.712 0.711,-0.712 0.388,0 0.711,0.324 0.711,0.712 C 0.711,-0.324 0.388,0 0,0"
       style="fill:#ffd599;fill-opacity:1;fill-rule:nonzero;stroke:none"
       transform="matrix(2.0715519,0,0,-2.1007783,82.311844,69.6594)"
       clip-path="url(#clipPath678)" />
    <path
       id="path679"
       d="M 0,0 C -0.918,0 -0.918,-1.423 0,-1.423 0.918,-1.423 0.918,0 0,0"
       style="fill:#ffd599;fill-opacity:1;fill-rule:nonzero;stroke:none"
       transform="matrix(2.0715519,0,0,-2.1007783,88.684147,72.890616)"
       clip-path="url(#clipPath680)" />
    <path
       id="path681"
       d="M 0,0 C -0.664,0.404 -1.336,0.765 -1.974,1.211 -2.783,1.777 -3.813,2.492 -4.833,2.192 -5.064,2.124 -5.196,1.785 -4.986,1.612 -4.368,1.104 -3.581,0.837 -2.91,0.389 c 0.61,-0.407 1.184,-0.821 1.815,-1.195 0.653,-0.387 1.29,-0.8 1.907,-1.241 0.429,-0.305 0.794,-0.874 1.255,-1.096 0.42,-0.203 0.8,0.052 0.857,0.492 C 3.065,-1.553 0.734,-0.447 0,0"
       style="fill:#ffd599;fill-opacity:1;fill-rule:nonzero;stroke:none"
       transform="matrix(2.0715519,0,0,-2.1007783,105.54739,81.348328)"
       clip-path="url(#clipPath682)" />
    <path
       id="path683"
       d="m 0,0 c -0.124,0.034 -0.244,0.03 -0.356,0 -0.343,-0.024 -0.618,-0.38 -0.618,-0.707 0,-0.187 0.076,-0.368 0.208,-0.501 0.119,-0.119 0.326,-0.228 0.501,-0.207 0.238,0.029 0.359,0.063 0.557,0.217 0.157,0.121 0.203,0.343 0.22,0.526 C 0.54,-0.367 0.279,-0.077 0,0"
       style="fill:#ffd599;fill-opacity:1;fill-rule:nonzero;stroke:none"
       transform="matrix(2.0715519,0,0,-2.1007783,115.05811,89.226686)"
       clip-path="url(#clipPath684)" />
    <path
       id="path685"
       d="m 0,0 c -0.005,0.01 -0.01,0.02 -0.015,0.031 -0.143,0.283 -0.477,0.364 -0.763,0.31 -0.257,-0.049 -0.415,-0.262 -0.497,-0.493 -0.079,-0.221 0.012,-0.493 0.172,-0.653 0.177,-0.177 0.414,-0.222 0.653,-0.172 0.202,0.042 0.341,0.185 0.45,0.349 0.126,0.192 0.097,0.435 0,0.628"
       style="fill:#ffd599;fill-opacity:1;fill-rule:nonzero;stroke:none"
       transform="matrix(2.0715519,0,0,-2.1007783,130.14545,122.53351)"
       clip-path="url(#clipPath686)" />
    <path
       id="path687"
       d="m 0,0 c -0.396,1.002 -0.747,2.103 -1.282,3.035 -0.234,0.408 -0.912,0.24 -0.896,-0.243 0.04,-1.184 0.723,-2.375 1.151,-3.461 0.263,-0.67 0.475,-1.351 0.617,-2.056 0.106,-0.53 0.001,-0.793 0.484,-1.092 0.1,-0.062 0.243,-0.063 0.344,0 0.045,0.028 0.089,0.055 0.134,0.083 0.171,0.107 0.316,0.311 0.3,0.523 C 0.763,-2.084 0.413,-1.046 0,0"
       style="fill:#ffd599;fill-opacity:1;fill-rule:nonzero;stroke:none"
       transform="matrix(2.0715519,0,0,-2.1007783,136.13513,136.88056)"
       clip-path="url(#clipPath688)" />
    <path
       id="path689"
       d="m 0,0 c -0.028,0.065 -0.073,0.123 -0.128,0.17 -0.272,0.231 -0.679,0.28 -0.946,0 -0.105,-0.111 -0.138,-0.198 -0.195,-0.336 -0.067,-0.162 -0.015,-0.391 0.07,-0.535 0.124,-0.211 0.355,-0.344 0.599,-0.344 0.245,0 0.476,0.133 0.6,0.344 0.138,0.235 0.101,0.465 0,0.701"
       style="fill:#ffd599;fill-opacity:1;fill-rule:nonzero;stroke:none"
       transform="matrix(2.0715519,0,0,-2.1007783,140.06651,150.17555)"
       clip-path="url(#clipPath690)" />
  </g>
</svg>
